<svg version="1.2" xmlns="http://www.w3.org/2000/svg" viewBox="0 0 24 24" width="24" height="24">
	<title>bug-spider-827-svgrepo-com</title>
	<style>
		.s0 { fill: #000000 } 
	</style>
	<g id="Page-1">
		<g id="Dribbble-Light-Preview">
			<g id="icons">
				<path id="bug_spider-[#827]" fill-rule="evenodd" class="s0" d="m19.2 7.2v1.2h3.6c0.7 0 1.2 0.5 1.2 1.2 0 0.7-0.5 1.2-1.2 1.2h-3.6v2.4h3.6c0.7 0 1.2 0.5 1.2 1.2 0 0.7-0.5 1.2-1.2 1.2h-3.6v1.2c2.7 0 4.8 2.1 4.8 4.8v1.2c0 0.7-0.5 1.2-1.2 1.2-0.7 0-1.2-0.5-1.2-1.2v-1.2c0-1.3-1.1-2.4-2.4-2.4 0 2.7-2.1 4.8-4.8 4.8h-4.8c-2.7 0-4.8-2.1-4.8-4.8-1.3 0-2.4 1.1-2.4 2.4v1.2c0 0.7-0.5 1.2-1.2 1.2-0.7 0-1.2-0.5-1.2-1.2v-1.2c0-2.7 2.1-4.8 4.8-4.8v-1.2h-3.6c-0.7 0-1.2-0.5-1.2-1.2 0-0.7 0.5-1.2 1.2-1.2h3.6v-2.4h-3.6c-0.7 0-1.2-0.5-1.2-1.2 0-0.7 0.5-1.2 1.2-1.2h3.6v-1.2c-2.7 0-4.8-2.1-4.8-4.8v-1.2c0-0.7 0.5-1.2 1.2-1.2 0.7 0 1.2 0.5 1.2 1.2v1.2c0 1.3 1.1 2.4 2.4 2.4 0-2.7 2.1-4.8 4.8-4.8h4.8c2.7 0 4.8 2.1 4.8 4.8 1.3 0 2.4-1.1 2.4-2.4v-1.2c0-0.7 0.5-1.2 1.2-1.2 0.7 0 1.2 0.5 1.2 1.2v1.2c0 2.7-2.1 4.8-4.8 4.8zm-2.4-2.4c0-1.3-1.1-2.4-2.4-2.4h-4.8c-1.3 0-2.4 1.1-2.4 2.4v14.4c0 1.3 1.1 2.4 2.4 2.4h4.8c1.3 0 2.4-1.1 2.4-2.4zm-1.2 13.2c0 0.7-0.5 1.2-1.2 1.2-0.7 0-1.2-0.5-1.2-1.2 0-0.7 0.5-1.2 1.2-1.2 0.7 0 1.2 0.5 1.2 1.2zm-4.8 0c0 0.7-0.5 1.2-1.2 1.2-0.7 0-1.2-0.5-1.2-1.2 0-0.7 0.5-1.2 1.2-1.2 0.7 0 1.2 0.5 1.2 1.2z"/>
			</g>
		</g>
	</g>
</svg>